<?xml version="1.0" encoding="UTF-8" standalone="no"?>
<svg
   enable-background="new 0 0 24 24"
   height="250"
   viewBox="0 0 250 250"
   width="250"
   fill="#000000"
   version="1.1"
   id="svg10"
   sodipodi:docname="vapourLab.svg"
   inkscape:version="1.1.2 (08b2f3d93c, 2022-04-05)"
   xmlns:inkscape="http://www.inkscape.org/namespaces/inkscape"
   xmlns:sodipodi="http://sodipodi.sourceforge.net/DTD/sodipodi-0.dtd"
   xmlns="http://www.w3.org/2000/svg"
   xmlns:svg="http://www.w3.org/2000/svg">
  <defs
     id="defs14" />
  <sodipodi:namedview
     id="namedview12"
     pagecolor="#ffffff"
     bordercolor="#999999"
     borderopacity="1"
     inkscape:pageshadow="0"
     inkscape:pageopacity="0"
     inkscape:pagecheckerboard="0"
     showgrid="false"
     inkscape:zoom="0.55859375"
     inkscape:cx="-131.58042"
     inkscape:cy="60.867133"
     inkscape:window-width="1557"
     inkscape:window-height="778"
     inkscape:window-x="363"
     inkscape:window-y="158"
     inkscape:window-maximized="0"
     inkscape:current-layer="svg10"
     lock-margins="true"
     fit-margin-top="0"
     fit-margin-left="0"
     fit-margin-right="0"
     fit-margin-bottom="0"
     height="27.4px" />
  <g
     id="g4"
     transform="scale(9.8814229,10.245902)">
    <rect
       fill="none"
       height="24"
       width="24"
       id="rect2"
       x="0"
       y="0" />
  </g>
  <g
     id="g8"
     style="opacity:0.734934;fill:#00a3c4;fill-opacity:1"
     transform="scale(9.8814229,10.245902)">
    <path
       d="M 19.8,18.4 14,10.67 V 6.5 L 15.35,4.81 C 15.61,4.48 15.38,4 14.96,4 H 9.04 C 8.62,4 8.39,4.48 8.65,4.81 L 10,6.5 v 4.17 L 4.2,18.4 C 3.71,19.06 4.18,20 5,20 h 14 c 0.82,0 1.29,-0.94 0.8,-1.6 z"
       id="path6"
       style="fill:#00a3c4;fill-opacity:1" />
  </g>
  <g
     style="fill:#000000"
     id="g37"
     transform="matrix(9.8814229,0,0,10.245902,12.84585,4.0983607)">
    <g
       id="g18">
      <path
         d="M 0,0 H 24 V 24 H 0 Z"
         fill="none"
         id="path16" />
    </g>
    <g
       id="g24"
       style="fill:#5dd39e;fill-opacity:1">
      <g
         id="g22"
         style="fill:#5dd39e;fill-opacity:1">
        <path
           d="m 14.5,17 c 0,1.65 -1.35,3 -3,3 -1.65,0 -3,-1.35 -3,-3 h 2 c 0,0.55 0.45,1 1,1 0.55,0 1,-0.45 1,-1 0,-0.55 -0.45,-1 -1,-1 H 2 v -2 h 9.5 c 1.65,0 3,1.35 3,3 z M 19,6.5 C 19,4.57 17.43,3 15.5,3 13.57,3 12,4.57 12,6.5 h 2 C 14,5.67 14.67,5 15.5,5 16.33,5 17,5.67 17,6.5 17,7.33 16.33,8 15.5,8 H 2 v 2 H 15.5 C 17.43,10 19,8.43 19,6.5 Z M 18.5,11 H 2 v 2 h 16.5 c 0.83,0 1.5,0.67 1.5,1.5 0,0.83 -0.67,1.5 -1.5,1.5 v 2 C 20.43,18 22,16.43 22,14.5 22,12.57 20.43,11 18.5,11 Z"
           id="path20"
           style="fill:#5dd39e;fill-opacity:1" />
      </g>
    </g>
  </g>
</svg>
